<svg width="36" height="36" viewBox="0 0 36 36" fill="none" xmlns="http://www.w3.org/2000/svg">
<path fill-rule="evenodd" clip-rule="evenodd" d="M14.533 4.5C14.533 5.09095 14.4166 5.67611 14.1904 6.22208C13.9643 6.76804 13.6328 7.26412 13.2149 7.68198C12.7971 8.09984 12.301 8.43131 11.755 8.65746C11.2091 8.8836 10.6239 9 10.033 9C9.44201 9 8.85685 8.8836 8.31088 8.65746C7.76492 8.43131 7.26884 8.09984 6.85098 7.68198C6.43312 7.26412 6.10165 6.76804 5.8755 6.22208C5.64935 5.67611 5.53296 5.09095 5.53296 4.5C5.53296 3.30653 6.00707 2.16193 6.85098 1.31802C7.69489 0.474106 8.83949 0 10.033 0C11.2264 0 12.371 0.474106 13.2149 1.31802C14.0589 2.16193 14.533 3.30653 14.533 4.5ZM12.533 4.5C12.533 5.16304 12.2696 5.79893 11.8007 6.26777C11.3319 6.73661 10.696 7 10.033 7C9.36992 7 8.73403 6.73661 8.26519 6.26777C7.79635 5.79893 7.53296 5.16304 7.53296 4.5C7.53296 3.83696 7.79635 3.20107 8.26519 2.73223C8.73403 2.26339 9.36992 2 10.033 2C10.696 2 11.3319 2.26339 11.8007 2.73223C12.2696 3.20107 12.533 3.83696 12.533 4.5Z" fill="#111111"/>
<path d="M26.5 1.08594L33.707 8.29294L32.293 9.70694L31 8.41394V13.9999H28V11.4999C28 11.1021 27.8419 10.7206 27.5606 10.4393C27.2793 10.158 26.8978 9.99994 26.5 9.99994C26.1021 9.99994 25.7206 10.158 25.4393 10.4393C25.158 10.7206 25 11.1021 25 11.4999V13.9999H22V8.41394L20.707 9.70694L19.293 8.29294L26.5 1.08594Z" fill="#111111"/>
<path fill-rule="evenodd" clip-rule="evenodd" d="M11.821 10.0002H12.2V10.0142C12.57 10.0422 13.029 10.1202 13.515 10.3192C16.338 11.4792 17.054 14.4012 17.42 15.8992L17.423 15.9092C17.623 16.7212 17.627 16.7442 17.741 17.2612C17.85 17.7532 18.061 18.7142 18.658 21.3342C18.7647 21.8016 18.7577 22.2878 18.6378 22.752C18.5178 23.2163 18.2883 23.645 17.9686 24.0022C17.6488 24.3595 17.2481 24.6349 16.8 24.8054C16.3518 24.9759 15.8694 25.0365 15.393 24.9822L15.993 28.0222C16.172 28.9302 15.694 29.9152 14.716 30.2252C13.711 30.5442 11.862 31.0002 9.5 31.0002C7.138 31.0002 5.289 30.5442 4.283 30.2252C3.305 29.9152 2.828 28.9302 3.007 28.0222L3.606 24.9822C3.12981 25.0363 2.64757 24.9756 2.19968 24.805C1.75178 24.6345 1.35125 24.3592 1.03164 24.0021C0.712022 23.6449 0.482617 23.2164 0.36263 22.7524C0.242644 22.2884 0.235568 21.8025 0.341996 21.3352C0.935996 18.7232 1.148 17.7612 1.257 17.2672L1.259 17.2612C1.373 16.7442 1.378 16.7212 1.577 15.9082L1.579 15.8982C1.946 14.4012 2.662 11.4782 5.485 10.3202C6.02302 10.104 6.59818 9.99525 7.178 10.0002H11.821ZM10.2 12.0002H7.179C6.919 12.0002 6.585 12.0302 6.244 12.1702C4.472 12.8972 3.917 14.7602 3.52 16.3842C3.324 17.1822 3.321 17.1962 3.214 17.6792L3.213 17.6862L3.212 17.6922C3.102 18.1892 2.889 19.1522 2.292 21.7782C2.2423 21.9947 2.26613 22.2217 2.35974 22.4232C2.45335 22.6247 2.6114 22.7892 2.80895 22.8909C3.00649 22.9926 3.23228 23.0257 3.45067 22.9848C3.66906 22.9439 3.86762 22.8314 4.015 22.6652L5.223 16.8182L7.182 17.2232L5.96 23.1332L6.005 23.1502L4.981 28.3482C6.44711 28.7864 7.96981 29.0061 9.5 29.0002C11.535 29.0002 13.135 28.6202 14.018 28.3482L12.994 23.1482L13.039 23.1312L11.819 17.2232L13.777 16.8182L14.985 22.6642C15.1323 22.8302 15.3308 22.9426 15.549 22.9834C15.7673 23.0243 15.9929 22.9913 16.1903 22.8898C16.3878 22.7883 16.5458 22.6239 16.6396 22.4226C16.7333 22.2214 16.7574 21.9946 16.708 21.7782C16.11 19.1532 15.898 18.1882 15.788 17.6922L15.785 17.6792C15.679 17.1962 15.675 17.1822 15.48 16.3842C15.082 14.7602 14.528 12.8972 12.756 12.1692C12.4587 12.0523 12.1414 11.9949 11.822 12.0002L10.2 12.0022V12.0002Z" fill="#111111"/>
<path d="M5.859 35.9099C5.50731 35.8529 5.18739 35.6726 4.95653 35.4013C4.72566 35.1299 4.59892 34.7852 4.599 34.4289V32.0239C5.933 32.1819 7.173 32.2829 8.384 32.3279L7.522 34.9039C7.40913 35.2415 7.17988 35.528 6.87522 35.7121C6.57057 35.8962 6.21037 35.966 5.859 35.9089V35.9099ZM11.489 34.9379L10.555 32.3509C11.8395 32.3264 13.1223 32.247 14.4 32.1129V34.4289C14.4 34.782 14.2755 35.1237 14.0484 35.3939C13.8213 35.6642 13.5061 35.8457 13.1584 35.9065C12.8106 35.9673 12.4526 35.9035 12.1472 35.7264C11.8419 35.5492 11.6088 35.27 11.489 34.9379ZM27 19.5859L35.707 28.2929L34.293 29.7069L32.538 27.9529V35.1539H28.846V32.0769C28.846 31.5873 28.6515 31.1178 28.3053 30.7716C27.9591 30.4254 27.4896 30.2309 27 30.2309C26.5104 30.2309 26.0409 30.4254 25.6947 30.7716C25.3485 31.1178 25.154 31.5873 25.154 32.0769V35.1539H21.46V27.9529L19.706 29.7069L18.292 28.2929L27 19.5859Z" fill="#111111"/>
</svg>
