<svg width="48" height="29" viewBox="0 0 48 29" fill="none" xmlns="http://www.w3.org/2000/svg">
<path d="M24 0C25.8565 0 27.637 0.737498 28.9497 2.05025C30.2625 3.36301 31 5.14348 31 7C31 8.85652 30.2625 10.637 28.9497 11.9497C27.637 13.2625 25.8565 14 24 14C22.1435 14 20.363 13.2625 19.0503 11.9497C17.7375 10.637 17 8.85652 17 7C17 5.14348 17.7375 3.36301 19.0503 2.05025C20.363 0.737498 22.1435 0 24 0ZM10 5C11.12 5 12.16 5.3 13.06 5.84C12.76 8.7 13.6 11.54 15.32 13.76C14.32 15.68 12.32 17 10 17C8.4087 17 6.88258 16.3679 5.75736 15.2426C4.63214 14.1174 4 12.5913 4 11C4 9.4087 4.63214 7.88258 5.75736 6.75736C6.88258 5.63214 8.4087 5 10 5ZM38 5C39.5913 5 41.1174 5.63214 42.2426 6.75736C43.3679 7.88258 44 9.4087 44 11C44 12.5913 43.3679 14.1174 42.2426 15.2426C41.1174 16.3679 39.5913 17 38 17C35.68 17 33.68 15.68 32.68 13.76C34.4237 11.5088 35.2331 8.67239 34.94 5.84C35.84 5.3 36.88 5 38 5ZM11 25.5C11 21.36 16.82 18 24 18C31.18 18 37 21.36 37 25.5V29H11V25.5ZM0 29V26C0 23.22 3.78 20.88 8.9 20.2C7.72 21.56 7 23.44 7 25.5V29H0ZM48 29H41V25.5C41 23.44 40.28 21.56 39.1 20.2C44.22 20.88 48 23.22 48 26V29Z" fill="#111111"/>
</svg>
